<?xml version="1.0" encoding="utf-8"?>
<!-- Generator: Adobe Illustrator 23.0.3, SVG Export Plug-In . SVG Version: 6.00 Build 0)  -->
<svg version="1.1" id="Camada_1" xmlns="http://www.w3.org/2000/svg" xmlns:xlink="http://www.w3.org/1999/xlink" x="0px" y="0px"
	 viewBox="0 0 689.9 178" style="enable-background:new 0 0 689.9 178;" xml:space="preserve">
<style type="text/css">
	.st0{fill:#3A7DAC;}
	.st1{fill:#2300F8;}
	.st2{fill:#F6D55C;}
	.st3{fill:#EA563D;}
</style>
<title>Prancheta 22567</title>
<path class="st0" d="M514.8,95.6c0-0.6,0.2-1.2,0.5-1.7c0.4-0.5,0.8-1,1.4-1.2c0.7-0.3,1.5-0.5,2.2-0.4c0.8,0,1.5,0.1,2.2,0.5
	c0.6,0.3,1,0.7,1.4,1.2c0.3,0.5,0.5,1,0.5,1.6c0,0.7-0.3,1.4-0.7,2c-0.6,0.7-1.4,1.2-2.2,1.7c0.3,0.4,0.6,0.8,0.9,1.1
	c0.3,0.3,0.6,0.7,0.8,1s0.5,0.6,0.7,0.8c0.1-0.2,0.3-0.5,0.5-1.1c0.1-0.4,0.3-0.8,0.6-1.1c0.2-0.2,0.5-0.4,0.8-0.3
	c0.3,0,0.6,0.1,0.8,0.3c0.2,0.2,0.4,0.5,0.4,0.8c0,0.4-0.1,0.9-0.3,1.2c-0.2,0.6-0.6,1.2-0.9,1.8c0.2,0.2,0.6,0.5,1.2,1
	c0.4,0.3,0.7,0.6,1,0.9c0.1,0.2,0.2,0.4,0.2,0.6c0,0.3-0.1,0.6-0.4,0.9c-0.2,0.2-0.5,0.4-0.8,0.4c-0.3,0-0.6-0.1-0.9-0.3
	c-0.3-0.2-0.9-0.7-1.9-1.5c-0.4,0.4-0.9,0.7-1.4,1c-0.5,0.3-1,0.5-1.5,0.6c-0.6,0.1-1.2,0.2-1.8,0.2c-0.8,0-1.5-0.1-2.3-0.4
	c-0.6-0.2-1.2-0.6-1.7-1c-0.4-0.4-0.8-0.9-1-1.4c-0.2-0.5-0.3-1-0.3-1.5c0-0.5,0.1-0.9,0.2-1.4c0.2-0.4,0.4-0.8,0.7-1.1
	c0.3-0.4,0.7-0.7,1.1-1c0.5-0.3,1-0.6,1.5-0.9c-0.4-0.5-0.8-1.1-1.1-1.7C514.9,96.6,514.8,96.1,514.8,95.6z M517.6,100.4
	c-0.6,0.3-1.1,0.7-1.5,1.2c-0.3,0.4-0.5,0.9-0.5,1.4c0,0.3,0.1,0.6,0.2,0.9c0.1,0.3,0.3,0.6,0.5,0.8c0.2,0.2,0.5,0.4,0.8,0.6
	c0.3,0.1,0.7,0.2,1,0.2c0.3,0,0.7-0.1,1-0.2c0.3-0.1,0.6-0.2,0.9-0.4c0.3-0.2,0.6-0.5,0.9-0.7c-0.6-0.5-1.1-1.1-1.6-1.6
	C518.8,101.9,518.3,101.2,517.6,100.4z M518.6,97.6c0.5-0.3,1-0.7,1.5-1.1c0.3-0.3,0.4-0.7,0.4-1.1c0-0.4-0.1-0.8-0.4-1
	c-0.3-0.3-0.7-0.4-1.1-0.4c-0.4,0-0.8,0.1-1.2,0.4c-0.3,0.3-0.5,0.6-0.5,1c0,0.2,0.1,0.4,0.2,0.6c0.1,0.2,0.3,0.5,0.4,0.7
	C518.1,97,518.3,97.3,518.6,97.6z"/>
<path class="st1" d="M79.8,71.1h3c2.1,0,4.1,0,6.2,0c0.5-0.1,1,0.2,1.1,0.7c3.9,7.9,7.8,15.7,11.6,23.6c0.2,0.3,0.2,0.7,0.1,1
	c-1.7,3.3-3.4,6.6-5.2,9.9c-0.1,0.1-0.2,0.2-0.2,0.3L79.8,71.1z"/>
<path class="st1" d="M76.8,106.4L60.2,71.1h2.4c2.3,0,4.5,0,6.8,0c0.5-0.1,0.9,0.2,1.1,0.6c3.9,7.9,7.8,15.8,11.7,23.7
	c0.1,0.3,0.1,0.7,0,1c-1.7,3.3-3.5,6.6-5.2,9.9C77,106.3,76.9,106.3,76.8,106.4z"/>
<path class="st1" d="M176.7,71.1h8.3v35.5h-8.3L176.7,71.1z"/>
<path class="st1" d="M150.7,71h8.2v35.6h-8.2V71z"/>
<path class="st1" d="M127.9,106.6h-8.3V71.1h8.3V106.6z"/>
<path class="st1" d="M311.7,103.5c-2.8,2.7-6.6,4.1-10.5,3.8c-6-0.4-10.4-3.2-12.7-8.9c-3-7.7,3-16.9,11.3-17.1
	c-0.2,0.3-0.4,0.6-0.6,0.8c-3.2,4.2-4.2,13,0.7,17.8c2.9,2.9,7,4.3,11,3.7L311.7,103.5z"/>
<path class="st1" d="M233.7,106.6H225V84.9l8.7-3L233.7,106.6z"/>
<path class="st1" d="M272.4,86.3l9.9-5.5v25.8H274v-1c0-4.5,0-8.9,0-13.4c0-1-0.1-2.1-0.4-3.1C273.3,88.1,272.9,87.2,272.4,86.3z"/>
<path class="st1" d="M249.8,106.6h-8.6V81.5c0.7,0.2,1.5,0.5,2.2,0.8c3.9,1.9,6.3,5.8,6.4,10.1c0.2,4.6,0.1,9.2,0.1,13.8
	C249.9,106.4,249.8,106.5,249.8,106.6z"/>
<path class="st1" d="M257.5,81.4c1,0.4,2,0.8,2.9,1.3c3.5,2.1,5.6,5.8,5.7,9.9c0.1,4.4,0,8.9,0,13.3c0,0.2,0,0.4,0,0.6h-8.6
	L257.5,81.4z"/>
<path class="st1" d="M207.6,81.6c4.8,0,8.4,2,10.7,6c2.6,4.2,2.5,9.5-0.3,13.6c-2.2,3.6-6.6,5.8-10.3,5.4c3-3.6,3.6-8,3.6-12.4
	S210.6,85.4,207.6,81.6z"/>
<path class="st1" d="M202.1,106.6c-4.5,0-8-1.7-10.3-5.4c-2.8-4-3-9.3-0.4-13.5c2.3-4.1,5.9-6.1,10.8-6.1c-3,3.7-3.6,8.1-3.6,12.5
	S199,102.9,202.1,106.6z"/>
<path class="st1" d="M303.8,81.3c6.4,0.1,12.6,7,12,13.4h-9C307.4,89.9,306.9,85.4,303.8,81.3z"/>
<path class="st1" d="M283,72.9c0,2.5-2,4.5-4.5,4.5c-2.5,0-4.5-2-4.5-4.5c0-2.5,2-4.5,4.5-4.5c0,0,0,0,0,0
	C281,68.5,283,70.5,283,72.9z"/>
<path class="st1" d="M100.1,71h13.4l-6,9.6C106.5,76.5,103.8,72.9,100.1,71z"/>
<path class="st1" d="M145.5,71v12.6c-2.4-5-5.1-9.4-9.8-12.5L145.5,71z"/>
<path class="st1" d="M172.1,87.6c0,2.2-1.7,3.9-3.9,3.9c0,0-0.1,0-0.1,0c-2.2,0-4-1.8-3.9-4c0-2.2,1.8-4,4-4
	C170.3,83.5,172.1,85.3,172.1,87.6C172.1,87.6,172.1,87.6,172.1,87.6z"/>
<path class="st1" d="M132.5,88.1c2.8-1.7,5-4.1,6.4-7v13.3C137.4,91.7,135.2,89.5,132.5,88.1z"/>
<path class="st2" d="M428.6,102.2l13.9-0.1c1.1-0.1,2.3,0.2,3.2,0.8c0.7,0.5,1.1,1.4,1.1,2.3c0,0.8-0.3,1.6-0.8,2.2
	c-0.7,0.7-1.6,1-2.6,0.9l-19.6,0.2c-1.1,0.1-2.3-0.3-3.1-1.1c-0.7-0.7-1.1-1.6-1.1-2.6c0.1-0.9,0.3-1.8,0.7-2.5
	c0.4-0.9,0.9-1.8,1.6-2.5c2.3-2.5,4.4-4.6,6.3-6.4c1.3-1.2,2.6-2.4,4-3.5c1.3-0.9,2.5-2,3.6-3.1c0.9-0.9,1.6-2,2.2-3.2
	c0.5-1,0.7-2.1,0.7-3.2c0-1.1-0.3-2.1-0.8-3c-0.5-0.9-1.3-1.6-2.2-2.1c-0.9-0.5-2-0.7-3.1-0.7c-2.2,0-4.3,1.2-5.4,3.1
	c-0.4,0.7-0.6,1.4-0.9,2.2c-0.3,1-0.8,1.9-1.4,2.8c-0.6,0.7-1.4,1-2.3,1c-0.8,0-1.6-0.3-2.2-0.9c-0.6-0.6-1-1.5-0.9-2.4
	c0-1.3,0.3-2.6,0.8-3.8c0.6-1.4,1.4-2.6,2.4-3.7c1.2-1.2,2.6-2.1,4.1-2.7c1.9-0.7,3.9-1.1,5.9-1.1c2.4-0.1,4.8,0.3,7,1.2
	c1.2,0.6,2.3,1.3,3.2,2.3c1,1,1.7,2.2,2.2,3.4c0.5,1.3,0.8,2.7,0.8,4c0,2.1-0.5,4.2-1.6,6c-0.9,1.6-2,3-3.3,4.3
	c-1.1,1.1-3,2.7-5.6,4.8c-2,1.6-3.8,3.3-5.4,5.1C429.4,100.9,429,101.5,428.6,102.2z"/>
<path class="st2" d="M464.1,73h-4.8v15.8c0.1,0.7-0.2,1.5-0.6,2c-0.9,0.9-2.3,0.9-3.1,0c0,0,0,0,0,0c-0.5-0.6-0.7-1.3-0.6-2V73H450
	c-0.6,0-1.2-0.1-1.7-0.5c-0.4-0.3-0.6-0.8-0.6-1.3c0-0.5,0.2-1,0.6-1.3c0.5-0.4,1.1-0.5,1.7-0.5h14c0.6,0,1.2,0.1,1.7,0.5
	c0.4,0.3,0.6,0.8,0.6,1.3c0,0.5-0.2,1-0.6,1.3C465.3,72.8,464.7,73,464.1,73z"/>
<path class="st2" d="M471.5,85.6v3.3c0.1,0.7-0.2,1.3-0.6,1.9c-0.4,0.4-0.9,0.6-1.5,0.6c-0.5,0-1.1-0.2-1.4-0.6
	c-0.4-0.5-0.6-1.2-0.6-1.8V77.7c0-1.8,0.7-2.7,2-2.7c0.6-0.1,1.1,0.2,1.5,0.6c0.3,0.6,0.5,1.2,0.5,1.9c0.4-0.7,0.9-1.3,1.5-1.9
	c0.6-0.4,1.3-0.7,2-0.6c0.9,0,1.7,0.2,2.5,0.6c0.7,0.3,1.2,0.9,1.2,1.7c0,0.5-0.2,0.9-0.5,1.2c-0.3,0.3-0.7,0.5-1.1,0.5
	c-0.4,0-0.8-0.1-1.1-0.3c-0.5-0.2-1-0.3-1.5-0.3c-0.5,0-1,0.1-1.5,0.5c-0.4,0.4-0.7,0.9-0.8,1.4c-0.2,0.7-0.4,1.5-0.4,2.2
	C471.6,83.4,471.5,84.4,471.5,85.6z"/>
<path class="st2" d="M490.6,89.2v-0.5c-0.4,0.6-1,1.1-1.5,1.5c-0.5,0.4-1.1,0.7-1.7,0.9c-0.7,0.2-1.4,0.3-2.2,0.3
	c-0.9,0-1.8-0.2-2.6-0.6c-0.7-0.4-1.4-1-1.8-1.7c-0.6-1.2-0.8-2.4-0.8-3.7v-8c-0.1-0.7,0.1-1.3,0.5-1.8c0.4-0.4,0.9-0.6,1.5-0.6
	c0.6,0,1.1,0.2,1.5,0.6c0.4,0.5,0.6,1.2,0.6,1.8v6.5c0,0.8,0.1,1.6,0.2,2.4c0.1,0.6,0.4,1.1,0.9,1.5c0.5,0.4,1.1,0.6,1.7,0.5
	c0.7,0,1.4-0.2,1.9-0.6c0.6-0.4,1-0.9,1.3-1.6c0.3-1.2,0.4-2.5,0.3-3.8v-4.9c0-0.7,0.2-1.3,0.6-1.8c0.4-0.4,0.9-0.6,1.5-0.6
	c0.5,0,1.1,0.2,1.5,0.6c0.4,0.5,0.6,1.2,0.5,1.8v11.8c0,0.6-0.1,1.2-0.5,1.7c-0.3,0.4-0.8,0.6-1.4,0.6c-0.5,0-1-0.2-1.4-0.6
	C490.7,90.4,490.5,89.8,490.6,89.2z"/>
<path class="st2" d="M498.6,75.3h0.4v-2.4c0-0.7,0-1.1,0-1.5c0-0.3,0.1-0.7,0.3-1c0.2-0.3,0.4-0.5,0.7-0.7c0.8-0.4,1.8-0.3,2.4,0.3
	c0.3,0.2,0.5,0.6,0.5,0.9c0.1,0.5,0.2,1,0.2,1.6v2.8h1.5c0.5,0,0.9,0.1,1.3,0.4c0.3,0.3,0.5,0.7,0.5,1.1c0,0.5-0.2,0.9-0.6,1.1
	c-0.6,0.2-1.2,0.4-1.8,0.3h-0.8v7.5c0,0.5,0,1,0.1,1.5c0,0.3,0.1,0.6,0.4,0.8c0.3,0.2,0.6,0.4,0.9,0.3c0.3,0,0.6-0.1,1-0.1
	c0.3-0.1,0.6-0.1,1-0.1c0.3,0,0.7,0.1,0.9,0.4c0.3,0.3,0.4,0.6,0.4,1c0,0.7-0.5,1.3-1.1,1.5c-1,0.4-2,0.6-3.1,0.5
	c-1,0.1-2-0.2-2.9-0.6c-0.6-0.4-1.1-1-1.3-1.8c-0.2-1-0.3-2-0.3-3v-7.8h-0.5c-0.5,0-1-0.1-1.3-0.4c-0.3-0.3-0.5-0.7-0.5-1.1
	c0-0.4,0.1-0.8,0.5-1.1C497.6,75.4,498.1,75.3,498.6,75.3z"/>
<path class="st2" d="M513.2,71.5v6c0.4-0.5,1-1,1.5-1.4c0.5-0.3,1-0.6,1.6-0.8c0.6-0.2,1.3-0.3,1.9-0.3c1,0,1.9,0.2,2.7,0.6
	c0.8,0.4,1.4,1.1,1.9,1.9c0.3,0.5,0.5,1,0.6,1.6c0.1,0.7,0.2,1.4,0.2,2.1V89c0,0.7-0.2,1.3-0.6,1.8c-0.4,0.4-0.9,0.6-1.5,0.6
	c-1.3,0-2-0.8-2-2.5v-6.9c0.1-1-0.1-2.1-0.6-3c-0.5-0.7-1.3-1.2-2.2-1c-0.7,0-1.4,0.2-1.9,0.6c-0.6,0.4-1,1-1.3,1.7
	c-0.3,1.1-0.4,2.2-0.3,3.3V89c0,0.7-0.1,1.3-0.5,1.8c-0.4,0.4-0.9,0.7-1.5,0.6c-1.3,0-2-0.8-2-2.5V71.5c-0.1-0.7,0.1-1.3,0.5-1.8
	c0.4-0.4,0.9-0.7,1.5-0.6c0.6,0,1.1,0.2,1.5,0.6C513,70.1,513.2,70.8,513.2,71.5z"/>
<path class="st2" d="M540.6,86.2c0,1-0.3,2-0.8,2.9c-0.6,0.8-1.4,1.5-2.4,1.8c-1.2,0.4-2.6,0.6-3.9,0.6c-1.3,0-2.6-0.2-3.7-0.7
	c-0.9-0.3-1.7-0.9-2.3-1.7c-0.5-0.6-0.7-1.3-0.7-2c0-0.4,0.2-0.8,0.5-1.1c0.3-0.3,0.8-0.5,1.2-0.5c0.4,0,0.7,0.1,1,0.3
	c0.3,0.3,0.5,0.6,0.6,0.9c0.4,0.7,0.9,1.2,1.5,1.6c0.7,0.4,1.5,0.6,2.4,0.5c0.7,0,1.4-0.2,2-0.5c0.5-0.3,0.8-0.7,0.8-1.2
	c0-0.6-0.3-1.2-0.8-1.6c-0.8-0.4-1.7-0.8-2.7-0.9c-1.2-0.3-2.3-0.6-3.4-1.1c-0.8-0.3-1.5-0.8-2.1-1.5c-0.5-0.6-0.8-1.5-0.8-2.3
	c0-0.8,0.3-1.6,0.8-2.3c0.5-0.8,1.3-1.4,2.1-1.7c1.1-0.5,2.2-0.7,3.4-0.6c1,0,1.9,0.1,2.8,0.3c0.7,0.2,1.4,0.5,2.1,0.9
	c0.5,0.3,0.9,0.7,1.3,1.2c0.3,0.4,0.4,0.8,0.4,1.3c0,0.4-0.2,0.8-0.5,1.1c-0.4,0.3-0.8,0.5-1.3,0.4c-0.4,0-0.8-0.1-1.1-0.4
	c-0.4-0.3-0.7-0.7-1-1.1c-0.3-0.4-0.7-0.7-1.1-1c-0.5-0.3-1.1-0.4-1.7-0.4c-0.6,0-1.3,0.1-1.8,0.5c-0.4,0.2-0.7,0.6-0.7,1.1
	c0,0.4,0.2,0.8,0.5,1c0.4,0.3,0.9,0.5,1.4,0.7c0.6,0.2,1.4,0.4,2.5,0.7c1.1,0.2,2.1,0.6,3.1,1.1c0.7,0.4,1.3,0.9,1.8,1.5
	C540.4,84.7,540.6,85.4,540.6,86.2z"/>
<path class="st3" d="M537.5,105.5c-0.6,0.5-1.3,0.9-2.1,1.3c-0.7,0.3-1.5,0.4-2.2,0.4c-0.7,0-1.4-0.1-2-0.5c-0.5-0.3-1-0.7-1.3-1.2
	c-0.3-0.5-0.5-1.1-0.5-1.7c0-0.8,0.3-1.5,0.8-2.1c0.6-0.6,1.3-1,2.1-1.1l1.4-0.3c0.7-0.2,1.4-0.3,1.9-0.4c0.5-0.1,1.1-0.3,1.7-0.5
	c0-0.6-0.2-1.2-0.5-1.7c-0.5-0.4-1.1-0.6-1.7-0.5c-0.6,0-1.2,0.1-1.7,0.3c-0.4,0.2-0.7,0.6-1,1c-0.2,0.3-0.4,0.6-0.6,0.8
	c-0.2,0.2-0.5,0.2-0.7,0.2c-0.3,0-0.6-0.1-0.9-0.3c-0.2-0.2-0.4-0.5-0.4-0.8c0-0.6,0.2-1.1,0.6-1.5c0.5-0.6,1.1-1,1.7-1.2
	c0.9-0.3,1.9-0.5,2.9-0.5c1.1,0,2.1,0.1,3.1,0.5c0.7,0.3,1.3,0.8,1.6,1.5c0.3,0.8,0.5,1.8,0.5,2.7v1.8c0,0.5,0,1,0,1.6
	c0,0.6,0.1,1.2,0.3,1.7c0.1,0.4,0.2,0.8,0.3,1.2c0,0.3-0.2,0.6-0.4,0.8c-0.3,0.2-0.6,0.4-1,0.4c-0.3,0-0.7-0.2-0.9-0.4
	C538.1,106.4,537.7,105.9,537.5,105.5z M537.3,101.1c-0.6,0.2-1.3,0.4-1.9,0.5c-0.8,0.2-1.4,0.3-1.7,0.4c-0.3,0.1-0.7,0.3-0.9,0.5
	c-0.3,0.3-0.5,0.6-0.4,1c0,0.4,0.2,0.8,0.5,1.1c0.4,0.3,0.9,0.5,1.3,0.5c0.6,0,1.1-0.1,1.6-0.4c0.5-0.2,0.8-0.6,1.1-1
	c0.3-0.7,0.5-1.5,0.4-2.2L537.3,101.1z"/>
<path class="st3" d="M551.6,75.5V100h13.8c0.9-0.1,1.8,0.2,2.5,0.8c0.6,0.5,0.9,1.2,0.9,2c0,0.8-0.3,1.5-0.9,2
	c-0.7,0.6-1.6,0.8-2.5,0.8H549c-1.9,0.4-3.8-0.9-4.2-2.8c-0.1-0.4-0.1-0.9,0-1.4V75.5c-0.1-1.1,0.2-2.2,0.9-3.1
	c0.6-0.7,1.5-1.1,2.4-1c0.9,0,1.8,0.3,2.5,1C551.4,73.3,551.7,74.4,551.6,75.5z"/>
<path class="st3" d="M576,77.8c-0.8,0-1.6-0.3-2.2-0.8c-0.6-0.6-1-1.4-0.9-2.2c0-0.8,0.3-1.7,1-2.2c0.6-0.6,1.4-0.9,2.2-0.9
	c0.8,0,1.5,0.3,2.1,0.8c0.6,0.6,1,1.4,0.9,2.2c0,0.8-0.3,1.7-0.9,2.2C577.6,77.5,576.8,77.8,576,77.8z M579.1,84.3v18.1
	c0.1,1-0.2,2-0.9,2.8c-0.6,0.6-1.4,1-2.2,1c-0.9,0-1.7-0.3-2.2-1c-0.6-0.8-0.9-1.8-0.9-2.8V84.5c-0.1-1,0.2-2,0.9-2.8
	c0.6-0.6,1.4-1,2.2-0.9c0.8,0,1.6,0.3,2.2,0.9C578.8,82.4,579.2,83.3,579.1,84.3z"/>
<path class="st3" d="M603,95h-12.2c0,1.3,0.3,2.6,0.9,3.8c0.9,2.1,3,3.4,5.3,3.3c0.7,0,1.4-0.1,2.1-0.4c0.6-0.2,1.2-0.5,1.8-0.8
	c0.6-0.4,1.1-0.8,1.6-1.2c0.5-0.4,1.1-1,1.9-1.7c0.4-0.3,0.9-0.4,1.4-0.4c0.6,0,1.1,0.2,1.6,0.5c0.4,0.4,0.6,0.9,0.6,1.5
	c0,0.7-0.3,1.4-0.7,2c-0.5,0.8-1.2,1.6-2,2.2c-1,0.8-2.1,1.3-3.3,1.7c-1.5,0.5-3.1,0.7-4.7,0.7c-4,0-7.1-1.1-9.4-3.4
	c-2.3-2.5-3.5-5.9-3.3-9.3c0-1.7,0.3-3.5,0.8-5.1c0.5-1.5,1.3-2.9,2.4-4.1c1.1-1.1,2.4-2,3.9-2.6c1.6-0.6,3.4-0.9,5.1-0.9
	c2.2-0.1,4.4,0.5,6.3,1.5c1.7,0.9,3,2.3,3.9,4c0.8,1.5,1.3,3.3,1.3,5c0,1.6-0.4,2.6-1.3,3.1C605.7,94.8,604.3,95,603,95z
	 M590.8,91.4h11.3c0-1.8-0.6-3.4-1.7-4.8c-1-1.1-2.5-1.6-3.9-1.6c-1.5,0-2.9,0.5-3.8,1.6C591.5,88,590.8,89.7,590.8,91.4L590.8,91.4
	z"/>
<path class="st0" d="M339.6,97.7c1.4-4.8,6.7-14.5,11.5-6.8c1.8,2.9,3,6.2,6,8.1c2.4,1.7,5.6,1.9,8.3,0.6c2.7-1.5,3.1-4.2,4.7-6.6
	c3.4-4.8,5.1,2.3,7.2,4.5c2.4,2.4,5.5,3.9,8.8,4.2c7.3,0.7,13.4-4.1,15.3-10.9c1.1-3.7-4.7-5.3-5.8-1.6c-1.5,5.2-6.9,8.3-12,5.7
	c-3.5-1.8-2.9-6.6-6.6-8.5c-5.7-3-10.3-0.2-12.8,5c-3.1,6.4-6.4-1.2-8.4-4.2c-1.7-2.7-4.3-5.2-7.7-5.6c-7.7-0.8-12.7,8.3-14.4,14.5
	C332.7,99.8,338.5,101.4,339.6,97.7L339.6,97.7z"/>
</svg>
